<svg xmlns="http://www.w3.org/2000/svg" xmlns:xlink="http://www.w3.org/1999/xlink" width="500" height="300" viewBox="73.894 34.649 500 300"><path fill="#178FBC" d="M331.876 80.327h40.708V91.03h-13.66v32.636h-13.39V91.03h-13.658V80.326zM370.403 108.057c0-4.79 1.614-8.735 4.846-11.84 3.234-3.105 7.6-4.656 13.1-4.656 6.285 0 11.036 1.824 14.248 5.47 2.58 2.938 3.872 6.554 3.872 10.85 0 4.83-1.603 8.787-4.805 11.872-3.203 3.083-7.633 4.625-13.288 4.625-5.045 0-9.125-1.28-12.237-3.843-3.826-3.175-5.737-7.333-5.737-12.477zm12.06-.03c0 2.8.566 4.87 1.7 6.21 1.132 1.34 2.558 2.01 4.27 2.01 1.737 0 3.16-.66 4.274-1.98 1.11-1.32 1.67-3.44 1.67-6.358 0-2.72-.563-4.746-1.685-6.076-1.123-1.33-2.514-1.995-4.168-1.995-1.756 0-3.206.674-4.347 2.025-1.14 1.35-1.715 3.403-1.715 6.162zM445.315 80.327v43.34h-11.262v-4.642c-1.577 1.97-3.017 3.3-4.317 3.992-1.734.906-3.667 1.36-5.795 1.36-4.276 0-7.543-1.626-9.798-4.88-2.26-3.25-3.387-7.203-3.387-11.854 0-5.203 1.246-9.184 3.74-11.943 2.496-2.76 5.66-4.14 9.505-4.14 1.872 0 3.573.316 5.1.947 1.528.63 2.882 1.577 4.066 2.837V80.327h12.15zM432.03 107.88c0-2.464-.52-4.302-1.566-5.513-1.046-1.213-2.364-1.82-3.962-1.82-1.397 0-2.57.582-3.518 1.744-.943 1.165-1.418 3.116-1.418 5.855 0 2.563.486 4.44 1.464 5.63.975 1.193 2.182 1.79 3.62 1.79 1.537 0 2.82-.6 3.843-1.804 1.025-1.2 1.538-3.16 1.538-5.88zM463.616 102.44l-11.5-1.212c.434-2.01 1.06-3.592 1.88-4.745.815-1.153 1.992-2.153 3.53-3 1.104-.612 2.62-1.084 4.553-1.42 1.93-.334 4.02-.502 6.265-.502 3.608 0 6.505.204 8.693.607 2.187.404 4.01 1.247 5.47 2.528 1.023.887 1.83 2.144 2.424 3.77.59 1.624.887 3.177.887 4.655v13.866c0 1.476.09 2.636.28 3.473.187.837.596 1.905 1.228 3.206h-11.295c-.453-.808-.75-1.422-.887-1.846-.135-.425-.276-1.09-.414-1.997-1.576 1.52-3.145 2.602-4.7 3.25-2.13.87-4.602 1.303-7.422 1.303-3.742 0-6.587-.867-8.527-2.6-1.94-1.737-2.91-3.875-2.91-6.417 0-2.386.698-4.347 2.098-5.884s3.982-2.68 7.745-3.43c4.515-.906 7.44-1.542 8.78-1.907 1.34-.365 2.76-.842 4.257-1.436 0-1.477-.305-2.512-.915-3.104-.61-.59-1.687-.886-3.224-.886-1.97 0-3.448.315-4.435.946-.77.494-1.39 1.42-1.862 2.78zm10.434 6.327a56.498 56.498 0 0 1-5.172 1.566c-2.444.65-3.99 1.29-4.642 1.922-.67.65-1.006 1.39-1.006 2.217 0 .946.33 1.72.99 2.32.66.603 1.63.902 2.913.902a7.5 7.5 0 0 0 3.74-.975c1.154-.652 1.97-1.445 2.453-2.38.48-.937.723-2.153.723-3.653v-1.92zM489.572 92.27h12.696l6.477 20.9 6.013-20.9h11.858l-12.456 33.546c-1.42 3.825-2.867 6.41-4.345 7.75-2.09 1.895-5.27 2.84-9.545 2.84-1.733 0-4.414-.235-8.038-.71l-.945-8.394c1.732.55 3.66.827 5.79.827 1.42 0 2.562-.325 3.44-.977.876-.65 1.62-1.815 2.23-3.493l-13.175-31.39zM533.72 118.183l9.995-.94c.41 1.187.99 2.036 1.732 2.547.74.51 1.732.767 2.968.767 1.353 0 2.4-.287 3.143-.864.576-.428.863-.963.863-1.606 0-.724-.377-1.283-1.136-1.68-.544-.28-1.986-.625-4.328-1.038-3.496-.61-5.926-1.174-7.285-1.693-1.36-.52-2.507-1.395-3.437-2.632-.935-1.235-1.397-2.645-1.397-4.227 0-1.73.502-3.22 1.507-4.473 1.007-1.252 2.393-2.187 4.156-2.804 1.766-.618 4.133-.926 7.1-.926 3.135 0 5.446.24 6.94.717 1.49.48 2.735 1.22 3.734 2.227.997 1.007 1.827 2.367 2.486 4.082l-9.548.94c-.25-.842-.66-1.46-1.237-1.856-.794-.528-1.748-.792-2.87-.792-1.138 0-1.966.202-2.485.605-.52.404-.78.894-.78 1.47 0 .643.33 1.128.988 1.458.66.33 2.093.626 4.307.89 3.348.378 5.836.906 7.47 1.582 1.634.675 2.882 1.64 3.747 2.89.866 1.254 1.3 2.63 1.3 4.128 0 1.516-.46 2.99-1.375 4.424-.913 1.433-2.356 2.573-4.328 3.42-1.97.85-4.654 1.273-8.053 1.273-4.8 0-8.217-.684-10.254-2.053-2.038-1.37-3.346-3.315-3.923-5.837zM528.34 80.327h10.76v8.287c0 3.052-.633 5.463-1.905 7.236-1.268 1.773-3.436 3.327-6.504 4.663l-2.35-4.403c1.915-.89 3.228-1.776 3.947-2.66.716-.88 1.116-1.925 1.198-3.128h-5.146v-9.995zM331.876 129.604h40.708v10.7h-13.66v32.64h-13.39v-32.64h-13.658v-10.7zM373.904 141.546h11.263v5.145c1.083-2.226 2.2-3.758 3.353-4.596 1.154-.838 2.58-1.255 4.275-1.255 1.772 0 3.716.55 5.822 1.653l-3.724 8.572c-1.42-.59-2.542-.886-3.37-.886-1.578 0-2.8.65-3.666 1.948-1.244 1.835-1.863 5.263-1.863 10.29v10.524h-12.09v-31.396zM435.51 160.23H411.39c.216 1.933.74 3.37 1.567 4.315 1.164 1.362 2.68 2.042 4.552 2.042a6.822 6.822 0 0 0 3.37-.888c.65-.376 1.348-1.036 2.102-1.98l11.853 1.094c-1.814 3.15-4.003 5.416-6.564 6.785-2.564 1.368-6.24 2.053-11.028 2.053-4.16 0-7.43-.587-9.813-1.76-2.39-1.172-4.362-3.034-5.93-5.586-1.566-2.553-2.35-5.552-2.35-9 0-4.908 1.573-8.88 4.714-11.917 3.146-3.034 7.484-4.55 13.023-4.55 4.495 0 8.042.68 10.645 2.04 2.6 1.36 4.58 3.33 5.94 5.91 1.36 2.584 2.04 5.943 2.04 10.082v1.36zm-12.238-5.765c-.236-2.324-.862-3.99-1.878-4.996-1.017-1.005-2.35-1.507-4.005-1.507-1.914 0-3.44.758-4.583 2.274-.73.948-1.193 2.356-1.39 4.228h11.855zM441.042 141.546h11.202v5.115c1.674-2.086 3.37-3.58 5.083-4.478 1.717-.898 3.807-1.343 6.27-1.343 3.33 0 5.936.99 7.818 2.97s2.824 5.04 2.824 9.178v19.956h-12.093V155.68c0-1.973-.364-3.366-1.094-4.184-.73-.817-1.754-1.227-3.075-1.227-1.457 0-2.642.55-3.546 1.655-.907 1.103-1.36 3.085-1.36 5.94v15.08h-12.03v-31.4z"/><path fill="#178FBC" d="M514.475 129.604v43.34H503.21V168.3c-1.575 1.974-3.015 3.302-4.315 3.992-1.733.906-3.665 1.36-5.795 1.36-4.276 0-7.543-1.626-9.8-4.877-2.257-3.253-3.386-7.205-3.386-11.856 0-5.204 1.247-9.187 3.74-11.943 2.493-2.76 5.662-4.138 9.505-4.138 1.87 0 3.572.313 5.1.943 1.527.63 2.88 1.577 4.064 2.838v-15.017h12.15zm-13.782 27.552c0-2.463-.522-4.3-1.567-5.513-1.046-1.213-2.365-1.818-3.96-1.818-1.4 0-2.573.58-3.52 1.745-.946 1.165-1.418 3.113-1.418 5.854 0 2.562.49 4.44 1.463 5.632.977 1.192 2.182 1.788 3.622 1.788 1.538 0 2.818-.6 3.843-1.804 1.024-1.203 1.538-3.165 1.538-5.884zM331.972 189.682c0-2.594.873-4.73 2.622-6.41 1.75-1.678 4.11-2.518 7.086-2.518 3.4 0 5.972.986 7.71 2.958 1.397 1.587 2.095 3.546 2.095 5.87 0 2.612-.866 4.753-2.6 6.424-1.732 1.67-4.128 2.503-7.19 2.503-2.73 0-4.936-.694-6.62-2.082-2.07-1.714-3.103-3.965-3.103-6.746zm6.526-.02c0 1.516.307 2.637.92 3.36.61.725 1.384 1.09 2.31 1.09.94 0 1.71-.36 2.314-1.073.6-.715.902-1.862.902-3.44 0-1.472-.304-2.566-.91-3.287-.608-.72-1.36-1.078-2.257-1.078-.948 0-1.733.364-2.35 1.094-.62.728-.93 1.84-.93 3.333zM354.62 181.137h6.064v2.768c.907-1.13 1.822-1.937 2.75-2.425.93-.483 2.06-.726 3.39-.726 1.805 0 3.214.534 4.232 1.607 1.018 1.07 1.528 2.728 1.528 4.968v10.796h-6.542v-9.342c0-1.068-.198-1.818-.592-2.263-.396-.443-.95-.665-1.664-.665-.787 0-1.43.298-1.92.896-.49.598-.737 1.67-.737 3.218v8.156h-6.51v-16.987zM331.876 206.395h40.708v10.7h-13.66v32.64h-13.39v-32.64h-13.658v-10.7z"/><path fill="#178FBC" d="M369.706 218.338h11.635l5.033 19.767 6.37-19.767h10.873l6.64 19.816 5.063-19.816h11.562l-11.565 31.397h-10.71l-6.36-18.892-6.145 18.892h-10.754l-11.642-31.397zM430.81 206.395h12.034v8.19H430.81v-8.19zm0 11.943h12.034v31.397H430.81v-31.397zM465.047 206.395v11.943h6.62v8.81h-6.62v11.124c0 1.338.125 2.224.382 2.655.394.67 1.083 1.003 2.068 1.003.888 0 2.13-.254 3.727-.77l.886 8.31c-2.974.647-5.753.973-8.335.973-2.996 0-5.203-.382-6.623-1.15-1.42-.77-2.468-1.936-3.147-3.498-.68-1.565-1.02-4.1-1.02-7.603v-11.045h-4.437v-8.81h4.437v-5.762l12.062-6.18zM491.92 206.395v11.943h6.62v8.81h-6.62v11.124c0 1.338.125 2.224.382 2.655.396.67 1.084 1.003 2.068 1.003.89 0 2.13-.254 3.727-.77l.887 8.31c-2.977.647-5.756.973-8.336.973-2.997 0-5.203-.382-6.622-1.15-1.42-.77-2.47-1.936-3.15-3.498-.68-1.565-1.02-4.1-1.02-7.603v-11.045h-4.434v-8.81h4.435v-5.762l12.062-6.18zM539.13 237.023h-24.124c.216 1.932.74 3.37 1.567 4.314 1.164 1.36 2.682 2.04 4.553 2.04a6.86 6.86 0 0 0 3.37-.884c.65-.376 1.35-1.037 2.1-1.983l11.855 1.095c-1.813 3.15-4 5.414-6.562 6.784-2.563 1.37-6.24 2.053-11.028 2.053-4.157 0-7.43-.586-9.813-1.76-2.387-1.172-4.362-3.034-5.93-5.586-1.565-2.55-2.35-5.552-2.35-9.002 0-4.907 1.572-8.877 4.715-11.913 3.146-3.035 7.485-4.554 13.023-4.554 4.493 0 8.042.68 10.644 2.042 2.6 1.358 4.58 3.33 5.94 5.91 1.36 2.58 2.04 5.943 2.04 10.082v1.36zm-12.24-5.766c-.237-2.324-.862-3.99-1.877-4.995-1.017-1.007-2.35-1.51-4.005-1.51-1.914 0-3.44.76-4.582 2.277-.73.945-1.193 2.355-1.39 4.227h11.855zM544.778 218.338h11.262v5.146c1.086-2.23 2.206-3.76 3.355-4.6 1.153-.836 2.577-1.256 4.273-1.256 1.775 0 3.714.552 5.822 1.656l-3.723 8.574c-1.42-.59-2.54-.888-3.37-.888-1.578 0-2.8.65-3.667 1.95-1.24 1.834-1.863 5.262-1.863 10.29v10.524h-12.09v-31.396z"/><defs><path id="a" d="M312.043 206.53c77.072-34.98 45.914-92.373 45.914-92.373-50.992 45.368-106.09 62.184-135.67 68.273 2.29-29.13-9.6-30.945-9.6-30.945.455 9.853-1.203 16.647-1.203 16.647.496-3.815-.336-13.174-.336-13.174-1.59-15.665-11.62-26.338-16.745-30.843 3.46 9.692 2.91 18.268 2.91 18.268.017-6.696-5.92-20.686-5.92-20.686-16.296-29.17 1.338-65.214 1.338-65.214 1.253-6.897-3.54-4.455-3.54-4.455-35.486 34.957-37.732 74.564-36.627 92.234-16.633 2.614-30.44 13.75-36.8 28.8-5.324 2.47-18.26 7.193-33.475 3.59 0 0 9.23 16.873 29.555 18.587 0 0-9.056 7.737-19.99 6.645 0 0 11.52-.952 17.22-6.296-4.88.158-9.385-1.903-9.385-1.903-5.1 4.28-15.213 7.378-15.213 7.378l1.376.1c-.895-.035-1.375-.1-1.375-.1s11.4 7.868 20.848 9.32c.673.113 1.843.33 3.14.635.995.254 4.308 1.243 7.156 3.752 3.917 3.922 9.07 11.32 13.31 25.104 0 0 12.39 46.63 59.385 72.84 1.165.58 59.487 29.27 122.172 4.012-18.55-7.23-32.23-20.854-32.23-20.854 38.97-6.655 40.165-46.34 40.165-46.34-17.126 6.193-39.356 5.465-39.356 5.465 91.465-9.84 73.973-70.88 73.973-70.88-18.312 18.312-40.997 22.41-40.997 22.41z"/></defs><clipPath id="b"><use xlink:href="#a" overflow="visible"/></clipPath><path clip-path="url(#b)" fill="#178FBC" d="M212.686 151.485c.456 9.853-1.203 16.647-1.203 16.647.497-3.815-.335-13.174-.335-13.174-1.59-15.665-11.62-26.338-16.745-30.843 3.458 9.692 2.91 18.268 2.91 18.268.017-6.696-5.92-20.686-5.92-20.686-16.297-29.17 1.337-65.214 1.337-65.214 1.252-6.897-3.542-4.455-3.542-4.455-47.366 46.66-35.51 101.606-35.51 101.606l22.496 22.297 28.91 14.88 16.937-5.483c3.333-31.91-9.334-33.842-9.334-33.842z"/><path clip-path="url(#b)" fill="#20AEE5" d="M312.043 206.53c77.072-34.98 45.914-92.373 45.914-92.373-61.314 54.552-128.573 67.825-150.258 70.802-3.312-23.336-23.362-41.287-47.613-41.287-19.93 0-37.027 12.12-44.325 29.39-5.324 2.47-18.26 7.193-33.475 3.59 0 0 9.23 16.873 29.555 18.587 0 0-9.056 7.738-19.99 6.646 0 0 11.52-.952 17.22-6.296-4.88.16-9.385-1.902-9.385-1.902-5.1 4.28-15.213 7.378-15.213 7.378l1.376.1c-.896-.035-1.376-.1-1.376-.1s11.4 7.868 20.848 9.32c.673.113 1.843.33 3.14.635.995.255 4.308 1.244 7.156 3.753 3.918 3.922 9.072 11.32 13.313 25.104 0 0 12.39 46.63 59.384 72.84 1.166.58 59.488 29.27 122.173 4.012-18.55-7.232-32.23-20.855-32.23-20.855 38.97-6.655 40.166-46.34 40.166-46.34-17.127 6.193-39.356 5.465-39.356 5.465 91.465-9.84 73.973-70.878 73.973-70.878-18.312 18.31-40.997 22.41-40.997 22.41z"/><g opacity=".68" clip-path="url(#b)"><path fill="#EFEFEF" d="M113.635 234.51a3.673 3.673 0 0 1 5.348-3.266 3.67 3.67 0 0 1 6.297-2.917 2.985 2.985 0 0 1 5.27-.012 4.126 4.126 0 0 1 3.164.263 4.356 4.356 0 0 1 7.818.275c.4-.18.838-.28 1.304-.28a3.212 3.212 0 0 1 3.213 3.214c0 .045-.006.09-.007.137a3.213 3.213 0 1 1 1.362 6.256 4.59 4.59 0 0 1-4.57 4.163 4.565 4.565 0 0 1-2.453-.715 3.67 3.67 0 0 1-5.82.375c-.626.5-1.42.8-2.285.8a3.66 3.66 0 0 1-2.84-1.344 3.2 3.2 0 0 1-3.21.723 3.51 3.51 0 0 1-5.493-1.072 2.008 2.008 0 0 1-.798-.558 2.672 2.672 0 0 1-4.337-2.794 3.665 3.665 0 0 1-1.965-3.25zM192.322 313.44c0-1.64 1.33-2.974 2.972-2.974.136 0 .27.013.4.03a.99.99 0 0 1 .92-1.35c.172 0 .33.047.47.124a3.516 3.516 0 0 1 6.02-1.355 2.73 2.73 0 0 1 2.097-.972c1.018 0 1.904.556 2.38 1.374.193-.03.39-.054.592-.054 1.19 0 2.242.594 2.88 1.5.288-.28.65-.478 1.053-.567a2.638 2.638 0 0 1 4.645 1.514c.57.304.98.86 1.083 1.52.028 0 .056-.003.083-.003a2.368 2.368 0 0 1 0 4.734 2.36 2.36 0 0 1-1.91-.974 2.088 2.088 0 0 1-2.796.984 2.42 2.42 0 0 1-4.552.76 1.212 1.212 0 0 1-.783-.347 4.282 4.282 0 0 1-5.5 1.42 2.532 2.532 0 0 1-2.24 1.35 2.524 2.524 0 0 1-2.14-1.185 1.98 1.98 0 0 1-2.82-2.565 2.966 2.966 0 0 1-2.853-2.964zM214.17 260.542a4.88 4.88 0 0 1 4.763-4.878c0-.044-.005-.088-.005-.13a3.882 3.882 0 0 1 3.88-3.882c.69 0 1.337.183 1.897.498a5.63 5.63 0 0 1 5.616-5.256c1.717 0 3.25.77 4.282 1.98.277-.14.57-.25.873-.33a4.376 4.376 0 0 1 6.855-.457 7.378 7.378 0 0 1 10.075 1.974 4.878 4.878 0 0 1 5.728 1.368 6.136 6.136 0 0 1 9.097 4.806 5.134 5.134 0 0 1 4.285 5.063c0 1.395-.56 2.656-1.46 3.58.586.573 1.046 1.143 1.21 1.553.5 1.25 15.525 2.252 16.526 3.254.738.736-14.007.647-22.23.358a5.237 5.237 0 0 1-6.89.644 6.75 6.75 0 0 1-10.27.717 6.695 6.695 0 0 1-3.404-.546 6.506 6.506 0 0 1-12.07.02 3.124 3.124 0 0 1-3.414-1.694 6.648 6.648 0 0 1-1.1-.106 3.125 3.125 0 0 1-4.457-.794c-.573.41-1.27.65-2.024.65a3.506 3.506 0 0 1-3.505-3.507l.002-.04a4.888 4.888 0 0 1-4.258-4.844zM138.135 209.548a3.802 3.802 0 0 1 3.71-3.798c0-.034-.004-.068-.004-.102a3.024 3.024 0 0 1 3.023-3.024c.536 0 1.04.144 1.478.388a4.38 4.38 0 0 1 7.707-2.55 3.45 3.45 0 0 1 .68-.257 3.407 3.407 0 0 1 5.338-.357c.9-.586 1.974-.93 3.13-.93 1.953 0 3.675.978 4.717 2.467a3.796 3.796 0 0 1 4.46 1.068 4.747 4.747 0 0 1 2.325-.607 4.78 4.78 0 0 1 4.758 4.35 3.996 3.996 0 0 1 3.336 3.938c0 1.088-.434 2.07-1.136 2.79.456.447.815.888.942 1.208.39.977 3.638 1.28 4.417 2.062.574.573-2.456.977-8.858.752a4.08 4.08 0 0 1-5.367.5 5.247 5.247 0 0 1-7.995.56 5.25 5.25 0 0 1-2.65-.422 5.07 5.07 0 0 1-4.702 3.18 5.07 5.07 0 0 1-4.696-3.168 2.438 2.438 0 0 1-2.66-1.32 5.25 5.25 0 0 1-.856-.08 2.434 2.434 0 0 1-3.47-.617 2.73 2.73 0 0 1-4.307-2.225l.002-.035a3.803 3.803 0 0 1-3.318-3.772zM266.656 293.058c.155 0 .305.013.455.035a2.53 2.53 0 0 1 3.756-1.81 4.13 4.13 0 0 1 3.556-2.024c1.098 0 2.095.427 2.836 1.126.252-.07.517-.114.793-.114 1.124 0 2.094.646 2.565 1.584.462.146.896.35 1.292.607a3.376 3.376 0 0 1 4.397 3.57 2.362 2.362 0 0 1-.318 4.706c-.29 0-.563-.057-.82-.148a2.195 2.195 0 0 1-2.947.44 5.222 5.222 0 0 1-4.375.913 2.783 2.783 0 0 1-4.07-1.09 4.217 4.217 0 0 1-6.818-1.23 3.293 3.293 0 0 1-3.592-3.278 3.29 3.29 0 0 1 3.29-3.288zM218.675 280.808c-1.45-4.396-4.398-1.698-4.747-2.096-.352-.4.4-3.3-2.3-3.948-2.698-.65-2.796 1.147-3.146.998-.35-.148-.7-3.398-3.247-3.398-2.55 0-2.698 2.2-3.05 2-.348-.2-1.077-4.737-5.245-3.396-2.8.9-1.15 4.047-1.65 4.196-.5.146-.694-1.9-2.446-1.35-1.964.615-1.15 1.847-1.7 1.75-.55-.103-2.898-3.65-6.995-.103-4.098 3.548-1.098 5.648-1.5 5.946-.218.162-1.497-.2-2.398.852-.9 1.05-1.45 2.247-.648 3.748.8 1.497 1.7 1.944 2.398 1.944.7 0 .998.604.6 1.1-.402.502-.25 3.5 1.7 4.5 1.946.997 4.344.898 4.945-.25.25-.702.497-.103.598.35.1.445.748 1.398 1.947 1.398 1.202 0 1.95-1.15 2.2-1.1.25.052.898 2.197 3.144 1.7 2.25-.502 2.25-2.45 2.75-2.5.5-.05.8 2.698 6.045 1.9 5.25-.8 4.45-5.746 4.798-6 .35-.246 2.097 2.1 3.646 1.004 1.55-1.1.75-3.45 1.15-3.748.402-.298 4.99.088 3.15-5.496zM133.86 166.66s-10.234-.98-8.093 7.59c1.518 6.068 8.598 3.538 8.598 3.538s4.55 7.08 9.61 4.554c0 0 5.057 4.552 7.586 1.517 0 0 9.61 2.023 9.104-2.53 0 0 9.104 2.02 8.093-3.036 0 0 5.563 2.025 6.575-1.515 0 0 5.562 1.008 8.093-5.06 0 0 2.012-2.436 0-4.045-2.53-2.023-4.553.505-4.553.505s-6.07-2.53-7.586-1.518c0 0-.506-7.08-9.61-3.54 0 0-.505-7.587-10.62-4.55 0-.003-14.162-7.084-17.197 8.09zM269.723 164.417c0-3.907 2.875-7.137 6.623-7.71a8.317 8.317 0 0 1-.06-.95c0-4.46 3.612-8.07 8.068-8.07 1.213 0 2.36.273 3.39.752a5.176 5.176 0 0 1 4.484-2.592 5.16 5.16 0 0 1 3.802 1.67 6.353 6.353 0 0 1 5.384-2.982 6.366 6.366 0 0 1 6.084 4.494 8.25 8.25 0 0 1 6.972-3.837c4.513 0 8.176 3.62 8.26 8.112a5.15 5.15 0 0 1 2.697-.763 5.183 5.183 0 0 1 5.184 5.183 5.168 5.168 0 0 1-1.233 3.352 7.074 7.074 0 0 1 3.495 5.014c1.43.532 3.3.388 5.48-1.737 0 0-.49 3.113-5.484 4.062a7.078 7.078 0 0 1-5.978 5.833c.028.173.047.354.047.538a3.347 3.347 0 0 1-3.347 3.347 3.336 3.336 0 0 1-2.74-1.43c-1.063 3.046-3.954 5.235-7.362 5.235a7.77 7.77 0 0 1-5.467-2.238 5.626 5.626 0 0 1-6.094-1.278 5.618 5.618 0 0 1-6.396.747 6.543 6.543 0 0 1-9.59.043 5.6 5.6 0 0 1-3.228 1.02 5.642 5.642 0 0 1-5.644-5.642c0-.846.192-1.645.526-2.366-.022 0-.043.004-.065.004a7.813 7.813 0 0 1-7.807-7.81zM188.632 235.862c1.177.008 1.357 1.372 2.348 1.38.994.005-.133 1.61 1.102 2.613 1.237 1 3.35.392 3.35.392s-.004.746 1.735.507c1.738-.238 2.487-.73 2.487-.73s.486 1.74 2.722 1.756c2.233.014 1.743-.983 1.743-.983s3.208 3 6.196 1.528c2.988-1.473 3.49-2.464 3.49-2.464s-.007 1.492 1.61.632c1.62-.857 2.6 1.382 3.473.767.87-.616 3.986-2.458 3.986-2.458s.24 1.24 2.107.382c1.867-.855 2.23.76 3.48-.472 1.248-1.236 1.01-2.728 1.01-2.728l.257-1.735s1.61.627 2.858-.355c1.248-.987.513-2.73.513-2.73s1.735.758 1.745-.98c.01-1.738-1.602-1.874-2.47-2-.868-.13-1.977-1.505-3.225-.52-1.246.988-1.868.857-2.483.234-.616-.622-2.59-2.87-3.34-1.635-.754 1.236-.26 1.488-1.254 1.98-.998.488-1.236-1-1.356-1.626-.122-.62-2.348-1.874-2.974-1.258-.623.62-3.23.973-3.474.23-.245-.75-.348-4.348-2.328-5.353-1.98-1.01-3.225-.518-3.225-.518s-1.724-2.246-2.478-.762c-.755 1.487-2.854-.39-2.854-.39s-2.715-2.994-6.328-.657c-3.613 2.336-4.255 5.933-4.255 5.933s-2.356-.636-3.24 2.214c-1.618.362-3.607.85-2.878 3.583 0 0-1.496.985-.268 2.98-.002-.002-.268 3.222 2.215 3.24z"/><path fill="#DCDDDD" d="M171.315 120.516c1.177.01 1.357 1.374 2.35 1.38.993.005-.135 1.61 1.1 2.613 1.238 1 3.352.39 3.352.39s-.004.746 1.734.51c1.74-.238 2.488-.73 2.488-.73s.487 1.74 2.722 1.754c2.233.015 1.744-.98 1.744-.98s3.21 3 6.197 1.525c2.99-1.474 3.49-2.463 3.49-2.463s-.007 1.49 1.61.63c1.62-.857 2.6 1.383 3.474.767.87-.616 3.987-2.458 3.987-2.458s.24 1.24 2.107.384c1.868-.858 2.228.758 3.48-.476 1.247-1.234 1.01-2.724 1.01-2.724l.257-1.737s1.61.63 2.86-.355c1.247-.986.512-2.728.512-2.728s1.733.757 1.743-.982c.01-1.737-1.603-1.87-2.47-2-.87-.13-1.978-1.503-3.226-.518-1.247.986-1.868.86-2.483.233-.615-.623-2.59-2.87-3.342-1.634-.753 1.236-.258 1.49-1.253 1.98-.997.49-1.235-1-1.356-1.624-.122-.62-2.35-1.876-2.974-1.26-.623.618-3.233.976-3.476.23-.243-.75-.346-4.346-2.327-5.352-1.98-1.008-3.224-.517-3.224-.517s-1.726-2.247-2.48-.76c-.755 1.486-2.853-.39-2.853-.39s-2.714-2.997-6.328-.66c-3.613 2.337-4.256 5.935-4.256 5.935s-2.357-.636-3.243 2.214c-1.614.363-3.603.848-2.874 3.583 0 0-1.495.984-.268 2.977.002-.002-.265 3.225 2.217 3.24z"/><path fill="#EFEFEF" d="M295.84 214.43s6.372 1.014 5.296-3.264c-1.08-4.272-4.77-.89-4.77-.89s-2.108-3.488-4.612-1.632c-.666-4.03-2.314-6.41-5.722-3.976-1.813-1.64-.667-4.027-3.83-3.402.237-3.208-1.04-4.808-2.437-4.804-1.4.003-3.573 1.776-3.573 1.776l-1.608-1.517s1.52-1.607-.54-2.837c-2.06-1.228-2.472-2.872-2.472-2.872s2.742-5.063-.88-6.945c0 0 .98-3.043-4.12-3.852 0 0-2.552-1.807-4.525-1.306-2.307-2.214-4.767.504-5.542 3.672-3.372-.897-3.856 2.72-4.638 3.092-2.715-1.06-4.598 2.562-7.145 3.552-2.545.994-2.792 1.408-3.488 2.105-3.33-.033-5.297 3.26-4.88 4.904-2.218.907-4.06 3.994-2.165 5.964-1.89.83-.98 3.045-1.844 3.087-.863.046-2.832 1.942-2.498 4.654-2.916.212-4.973.378-4.226 3.337s3.995 2.664 3.995 2.664.298 4.646 4.04 4.925c3.742.278 5.544-2.276 6.04-1.702.494.573 3.044.98 2.76 1.927-.288.945.58 2.3 3.213 3.033 2.633.736 4.353-2.146 4.353-2.146s2.428 2.007 4.235.854c.617.37 1.856 2.502 1.856 2.502s.542 2.838 3.006 2.914c2.467.078 4.392-2.684 4.392-2.684s1.403 1.396 2.55.404c1.148-.987 2.384-1.65 3.083-.95.7.695 3.372.896 5.26.068 1.89-.826 2.913-3.01 2.913-3.01s.66 1.232 3.167.778c2.506-.462 3.57-3.178 3.57-3.178s2.304.82 4.932.152c2.63-.664 2.253-2.84 2.253-2.84s1.482.323 3.125-.09c1.644-.408 1.474-2.465 1.474-2.465zM165.91 270.72a4.14 4.14 0 0 1-2.99-1.268l-.913-.94-.96.895a3.14 3.14 0 0 1-2.14.84c-1.56 0-2.9-1.162-3.116-2.705l-.164-1.177-1.19.025h-.043a1.25 1.25 0 0 1-1.21-1.055l-.24-1.496-1.453.42a4.17 4.17 0 0 1-5.33-4.004c0-2.177 1.697-4 3.865-4.158l1.678-.12-.497-1.61a3.778 3.778 0 0 1 4.75-4.718l1.2.383.2-1.37c.26-.674 1.275-1.05 1.995-1.05.384 0 .62.26.927.498l.962.748.833-.89a4.127 4.127 0 0 1 3.046-1.323 4.184 4.184 0 0 1 3.923 2.75l.352.97 1.028-.093a1.244 1.244 0 0 1 1.06.408l1.024 1.136.99-1.166a3.782 3.782 0 0 1 2.876-1.33 3.78 3.78 0 0 1 3.59 4.954l-.34 1.035.944.54a4.183 4.183 0 0 1 2.1 3.62 4.16 4.16 0 0 1-2.866 3.96l-.975.32.06 1.026c.002.066.005.135.005.2a3.386 3.386 0 0 1-3.38 3.382 3.36 3.36 0 0 1-1.837-.542l-.743-.48-.734.495a1.245 1.245 0 0 1-1.085.153l-1.036-.33-.535.946a4.176 4.176 0 0 1-3.63 2.12zM162.05 146.317a5.104 5.104 0 0 0 5.105 5.104c.405 0 .8-.052 1.18-.14a4.662 4.662 0 0 0 7.57 1.42 5.297 5.297 0 0 0 10.438-.385 3.697 3.697 0 0 0 2.018.232c-8.81-6.113-19.373-7.987-25.75-8.543a5.057 5.057 0 0 0-.56 2.313z"/><path fill="#DCDDDD" d="M202.69 143.175c-.502 0-.978.116-1.406.315.018-.103.033-.207.033-.315 0-1.083-.88-1.962-1.963-1.962-.088 0-.172.014-.257.025a2.743 2.743 0 0 0-3.902-1.205 3.138 3.138 0 0 0-2.91-1.962c-.8 0-1.53.303-2.082.796a4.124 4.124 0 0 0-4.004-3.15c-1.563 0-2.92.87-3.62 2.148a3.338 3.338 0 0 0-4.602.833 2.744 2.744 0 0 0-2.577-1.805 2.75 2.75 0 0 0-2.748 2.75c0 .04.004.08.007.12a3.79 3.79 0 0 0-.94-.12 3.778 3.778 0 0 0-3.195 1.762 5.073 5.073 0 0 0-1.37-.192 5.1 5.1 0 0 0-4.546 2.79c6.376.557 16.94 2.43 25.75 8.544a3.73 3.73 0 0 0 2.343-1.378c.5.16 1.03.252 1.582.252a5.073 5.073 0 0 0 3.197-1.128 3.323 3.323 0 0 0 2.496 1.128c1.37 0 2.548-.827 3.06-2.01.49.278 1.052.44 1.652.44a3.337 3.337 0 1 0 0-6.675z"/></g></svg>