<svg xmlns="http://www.w3.org/2000/svg" width="50" height="50" viewBox="-1.866 -2.673 50 50"><path fill="#FFF" d="M19.118 19.19c.568-.13.918-.685.79-1.243a1.05 1.05 0 0 0-1.26-.775c-.566.13-.92.684-.79 1.242.13.558.695.905 1.26.776zM10.942 22.75s2.927-2.273 5.84-.507c0 0 1.197-1.34-.393-2.49 0 0-.87-.368-.96-1.5 0 0-3.787.236-4.488 4.498zM12.913 38.174l-1.38-.405v1.163c-1.32.146-2.632.52-3.648 1.322l-.076.063c-.042.033-.08.065-.12.102-.262.225-.706.632-.832.894a.053.053 0 0 0-.013.036c0 .028.014.05.032.05.006 0 .01-.005.016-.01 0 0 .394-.315.84-.56.78-.405 2.084-.908 3.798-1.04v5.456c-.002.063 0 .105 0 .118 0 .012.007.023.016.032.01.012.023.016.037.016l.193-.004a.05.05 0 0 0 .05-.05v-.106c.008-.184.065-.62.423-.677.427-.066.663-.32.663-.72v-4.084c.312.017.636.05.97.094V44.567c-.004.07 0 .118 0 .13 0 .014.005.028.016.038.01.01.024.017.04.017l.215-.004c.03 0 .056-.026.056-.057v-.117c.01-.204.073-.69.473-.753.478-.075.74-.36.74-.803V39.03a17.5 17.5 0 0 0-2.508-.174v-.682zM19.47 42.78l-2.894-.687v1.152l1.44.343c.13.032.248.034.352.01.185-.046.318-.176.394-.39.036-.097.112-.16.233-.19.153-.035.335-.01.43.01l.095.02a.045.045 0 0 0 .04-.005.05.05 0 0 0 .02-.032l.03-.15a.05.05 0 0 0-.032-.054.635.635 0 0 0-.108-.026zM19.47 41.3l-2.894-.687v1.153l1.44.342a.74.74 0 0 0 .352.007c.185-.045.318-.175.394-.386.036-.1.112-.16.233-.19a1.06 1.06 0 0 1 .43.006l.095.024a.05.05 0 0 0 .04-.01.043.043 0 0 0 .02-.03l.03-.15c.006-.022-.01-.047-.032-.056l-.108-.025zM19.47 39.91l-2.894-.686v1.152l1.44.343c.13.03.248.033.352.007.185-.046.318-.176.394-.387.036-.097.112-.16.233-.19.153-.036.335-.01.43.008l.095.022c.013.004.027 0 .04-.006a.05.05 0 0 0 .02-.032l.03-.152a.046.046 0 0 0-.032-.053s-.043-.014-.108-.026zM23.5 42.318l-1.53-.35v-.34c.04-.003.08-.003.116-.014.185-.044.318-.174.395-.387.036-.098.113-.16.234-.19.152-.036.335-.01.428.008l.097.022c.013.002.026.002.038-.006.01-.008.02-.018.022-.03l.03-.15a.048.048 0 0 0-.033-.056.673.673 0 0 0-.107-.026l-1.217-.288v-.393l-.96-.262v.426l-.718-.167v1.152l.718.17v.314l-.718-.165v1.125l.718.17v1.72c-.002.043 0 .073 0 .08 0 .01.004.02.01.023a.03.03 0 0 0 .026.013l.132-.004c.02 0 .035-.017.035-.035v-.072c.005-.13.045-.432.293-.47.298-.047.46-.224.46-.5v-.525l.076.02c.13.03.25.033.352.007.186-.046.318-.176.395-.39.036-.097.112-.157.233-.187a1.08 1.08 0 0 1 .43.006l.095.024c.014.002.03 0 .04-.008.01-.006.018-.02.02-.032l.03-.15a.047.047 0 0 0-.03-.055c-.004-.003-.045-.012-.11-.027zM25.83 40.916h-.064v-.496H24.66v.51l-.394.005h-.15a.06.06 0 0 0-.06.057V41.854s.002.083.087.083c.096.004.27.004.487.004h.03v2.328c-.003.05 0 .085 0 .094 0 .012.004.02.013.028.006.008.017.012.03.012l.153-.004c.02 0 .04-.02.04-.04v-.084c.006-.147.052-.494.34-.54.34-.056.53-.258.53-.576v-1.222c.22 0 .444 0 .654.004v3.355a1.06 1.06 0 0 0 0 .134c0 .016.008.027.02.04.008.008.024.014.04.014l.218-.004c.03 0 .06-.026.06-.057v-.12c.007-.208.07-.703.476-.768.486-.075.754-.364.754-.813V40.68c-.31.063-.63.117-.96.153-.376.042-.798.067-1.2.083zM28.806 40.336l-.012 1.47v.242s.208-.064.506-.153l.3-.077v3.422a.43.43 0 0 0 0 .093c0 .01.005.02.015.026.01.008.022.012.038.012l.197-.002c.028-.002.053-.02.053-.04v-.086c.008-.146.065-.494.436-.54.44-.054.684-.258.684-.574v-2.673l.91-.232V38.853l-.755.38-2.374 1.102z"/><path fill="#FFF" d="M41.047 25.742c1.088-5.863 4.865-10.207 4.904-10.258.165-.218.156-.27-.204-.346a18.008 18.008 0 0 0-2.194-.267c-.834-.04-1.323.045-2.055.22.187-3.59 1.964-6.985 3.368-9.148.516-.793.978-1.418 1.297-1.83.228-.3-.105-.398-.105-.398-3.635-.97-10.62-2.172-10.62-2.172-6.027-.88-10.164.155-12.81 2.696.106-.998.064-1.8.054-1.96L22.543.282a.304.304 0 0 0-.226-.27.314.314 0 0 0-.335.124c-1.215 1.818-2.867 2.41-4.956 3.162-.647.23-1.378.493-2.16.824-2.266 1.07-3.56 2.497-4.258 3.546C9.672 6.643 8.51 5.96 8.46 5.93l-1.12-.653a.32.32 0 0 0-.324.01.304.304 0 0 0-.133.294L7.07 6.86c.566 5.905-1.09 8.15-1.106 8.17a8.213 8.213 0 0 0-1.674 4.08 57.66 57.66 0 0 1-1.932-.82L.433 17.43a.314.314 0 0 0-.358.076c-.087.1-.1.248-.027.36l1.15 1.784c.53.82 1.063 3.16 1.45 4.87.14.606.258 1.13.356 1.495C3.49 28 4.364 29.98 5.6 31.897c.017.033 1.363 2.58 4.983 3.315.292.06.602.105.924.14.21.02.424.028.64.03.025.002.05.002.075.002h.13c.028 0 .12 0 .26-.008l.036-.004c.03 0 .062-.004.094-.006.156-.013.354-.034.582-.07a7.782 7.782 0 0 0 2.094-.6c.17-.073.34-.153.512-.242a7.073 7.073 0 0 0 2.602-2.288c.7-1.02 1.228-2.364 1.416-4.133.003-.09.006-.18.006-.268 0-.4-.033-.792-.094-1.175 5.525-3.633 5.223-10.742 4.68-12.873 2.637.966 3.613 3.14 3.626 3.168a.15.15 0 0 0 .152.09h.01a.15.15 0 0 0 .12-.216 4.324 4.324 0 0 0-1.076-2.27v-3.775l-.585-1.295-1.518-.367-1.38.897-1.322 2.577a7.737 7.737 0 0 0-1.2 0c-4.192.38-5.88 4.248-5.895 4.287a.146.146 0 0 0 .066.188.15.15 0 0 0 .196-.044c2.294-3.23 4.977-3.626 5.492-3.672.067-.007.104-.007.113-.008a8.302 8.302 0 0 1 2.498.226c.402 1.942 1.465 9.19-4.107 12.455a7.79 7.79 0 0 0-.293-.93 4.19 4.19 0 0 0-.74-1.066c-.47-.485-.907-.702-1.052-.673a.1.1 0 0 0-.078.1c0 .007.003.013.005.02a.1.1 0 0 0 .044.062c.006.005.027.02.06.05a6.27 6.27 0 0 1 1.58 3.3c.044.293.07.59.07.895 0 2.897-2.03 5.35-4.827 6.168l-.123.034c-.084.02-.17.046-.257.066-.044.008-.09.018-.136.028a7.442 7.442 0 0 1-1.535.164 7.09 7.09 0 0 1-4.726-1.77 6.624 6.624 0 0 1-.913-.998c-.013-.02-.028-.04-.04-.06a28.027 28.027 0 0 1-.39-.6c-.64-1.018-1.368-2.367-1.82-3.977a12.267 12.267 0 0 1-.22-.903c-.266-1.335-.338-2.14-.436-3.253-.046-.527-.097-1.12-.18-1.877.783.32 1.34.523 1.658.602l.842.208.024.003h.005a.1.1 0 0 0 .102-.1.1.1 0 0 0-.023-.06l-.323-.826c-.003-.004-.003-.007-.003-.01-.094-.33-.488-2.094.93-4.54l.036-.05c.766-1.047 3.074-4.71 1.398-8.738l.075.048c.59.39 1.53 1.34 1.746 2.438l.555 2.256c.01.046.05.078.102.076a.1.1 0 0 0 .094-.085l.194-1.323c.226-1.726 1.667-3.856 5.028-4.66.24-.044.478-.084.717-.125 1.45-.25 2.95-.508 4.27-1.41.234.996.225 1.478.196 3.077l-.002.112c0 .05.036.094.087.1a.1.1 0 0 0 .11-.077c.167-.713 3.948-7.172 18.03-3.16.07.026.282.12-.022.248v.002a15.125 15.125 0 0 0-5.058 3.396c-2.54 2.44-4.267 5.695-4.74 9.34a18.957 18.957 0 0 0-.28 3.26c0 5.42 2.282 10.246 5.84 13.364h-.003s.808.7.148 1.653c-.23.306-.47.618-.725.926-.013.017-.61.76-1.7 1.595V40.8c.938-.18 2.012-.328 3.058-.345 1.612-.026 2.836.26 3.633.848a.28.28 0 0 0 .167.054.26.26 0 0 0 .257-.26.26.26 0 0 0-.047-.144c-.178-.424-1.132-2.438-3.427-3.388a14.785 14.785 0 0 0 1.757-2.304l.1-.167c.14-.233.268-.47.365-.67.027-.056.058-.113.087-.17.472-.892 2.887-5.04 6.606-4.67.08.01.157.02.238.034.12.022.25-.038.313-.14.067-.11.05-.23-.02-.345-.088-.14-1.724-2.95-5.07-3.388zM23.24 12.586l1.155-2.366.895-.624 1.002.284-.14 1.07-1.182-.298-.896 2.092-.088-.017c-.13-.03-.255-.05-.383-.073l-.363-.068z"/></svg>