<svg xmlns="http://www.w3.org/2000/svg" width="50" height="50" viewBox="-1.973 -9.443 50 50"><path fill="#FFF" d="M46.054 6.913c-1.306.685-3.894.827-5.224.85-.005-.034-.014-.063-.02-.09 2.68-.642 4.462-4.39 4.462-4.39-5.19 2.762-6.01 1.197-6.01 1.197v.01a8.88 8.88 0 0 0-6.07-3.453c-4.896-.564-9.33 2.95-9.893 7.846a9.02 9.02 0 0 0 .057 2.316h-.01S13.63 10.157 6.246 0c0 0-4.516 6.302 1.455 11.858 0 0-1.397-.05-3.725-1.512 0 0-1.724 6.51 5.947 9.562 0 0-2.308.278-4.06-.468 0 0 1.04 5.962 7.605 7.265 0 0-4.694 4.11-13.47 2.24 0 0 4.87 4.78 13.994 5.386 0 0 23.823 3.27 27.01-23.12 2.733-1.407 5.05-4.297 5.05-4.297z"/></svg>